<svg width="15" height="15" viewBox="0 0 15 15" fill="none" xmlns="http://www.w3.org/2000/svg">
<g clip-path="url(#clip0_50_93)">
<path d="M14.5871 4.16321L13.2365 5.51379C13.0988 5.65149 12.8761 5.65149 12.7384 5.51379L9.48649 2.26184C9.34879 2.12415 9.34879 1.90149 9.48649 1.76379L10.8371 0.413208C11.3849 -0.134644 12.2756 -0.134644 12.8263 0.413208L14.5871 2.17395C15.1379 2.7218 15.1379 3.61243 14.5871 4.16321ZM8.32633 2.92395L0.632973 10.6173L0.011879 14.1769C-0.0730819 14.6573 0.345863 15.0734 0.826332 14.9913L4.3859 14.3673L12.0793 6.67395C12.217 6.53626 12.217 6.3136 12.0793 6.1759L8.82731 2.92395C8.68668 2.78626 8.46403 2.78626 8.32633 2.92395V2.92395ZM3.6359 9.95813C3.47477 9.797 3.47477 9.53918 3.6359 9.37805L8.14762 4.86633C8.30875 4.7052 8.56657 4.7052 8.7277 4.86633C8.88883 5.02747 8.88883 5.28528 8.7277 5.44641L4.21598 9.95813C4.05485 10.1193 3.79704 10.1193 3.6359 9.95813V9.95813ZM2.57829 12.422H3.98454V13.4855L2.09489 13.8165L1.18375 12.9054L1.51481 11.0157H2.57829V12.422Z" fill="white"/>
</g>
<defs>
<clipPath id="clip0_50_93">
<rect width="15" height="15" fill="white"/>
</clipPath>
</defs>
</svg>
